# xmcd
#
# Track frame offsets:
#   150
#   16198
#   36954
#   51646
#   72527
#   93887
#   114436
#   131437
#   150964
#   171440
#   186591
#   207372
#   230160
#   243300
#   260021
#   277467
#   296094
#   310895
#   323348
#   340438
#
# Disc length: 4721 seconds
#
# Revision: 0
# Processed by: cddbd v1.5.1PL0 Copyright (c) Steve Scherf et al.
# Submitted via: uFREEDB ActiveX Control 1.5
#
DISCID=38126f14
DTITLE=Daniel - As 20 mais
DYEAR=1900
DGENRE=Country
TTITLE0=Eu sem você
TTITLE1=Um homem apaixonado
TTITLE2=Dengo
TTITLE3=Evidencias
TTITLE4=Adoro amar você
TTITLE5=Fale um pouco de você
TTITLE6=Quando o coração se apaixona
TTITLE7=Quando a saudade dói
TTITLE8=Que era eu
TTITLE9=Estourou um cano
TTITLE10=Declaração de amor
TTITLE11=Ao meu lado outra vez
TTITLE12=Bota pra moer
TTITLE13=Dá-me , Dá-me
TTITLE14=Vai dar samba
TTITLE15=Vida minha
TTITLE16=Já tô no grude
TTITLE17=O amor é poderoso
TTITLE18=Esperança
TTITLE19=Brasil samba e forro
EXTD=
EXTT0=
EXTT1=
EXTT2=
EXTT3=
EXTT4=
EXTT5=
EXTT6=
EXTT7=
EXTT8=
EXTT9=
EXTT10=
EXTT11=
EXTT12=
EXTT13=
EXTT14=
EXTT15=
EXTT16=
EXTT17=
EXTT18=
EXTT19=
PLAYORDER=
